<svg xmlns="http://www.w3.org/2000/svg" width="180" height="180" viewBox="0 0 180 180" fill="none">
  <defs>
    <linearGradient id="ring" x1="36" y1="34" x2="146" y2="148" gradientUnits="userSpaceOnUse">
      <stop stop-color="#27E0D1" />
      <stop offset="0.52" stop-color="#0F9D8F" />
      <stop offset="1" stop-color="#FF9B54" />
    </linearGradient>
    <linearGradient id="bar" x1="94" y1="90" x2="132" y2="90" gradientUnits="userSpaceOnUse">
      <stop stop-color="#139E90" />
      <stop offset="1" stop-color="#FF9B54" />
    </linearGradient>
    <linearGradient id="spark" x1="66" y1="63" x2="98" y2="96" gradientUnits="userSpaceOnUse">
      <stop stop-color="#EDFFFE" />
      <stop offset="1" stop-color="#C8FFF4" />
    </linearGradient>
    <filter id="glow" x="0" y="0" width="180" height="180" filterUnits="userSpaceOnUse">
      <feDropShadow dx="0" dy="8" stdDeviation="9" flood-color="#082C2B" flood-opacity="0.16" />
    </filter>
  </defs>
  <g filter="url(#glow)">
    <path
      d="M129 53.5C118.7 43.8 104.8 38 89.6 38C59.4 38 35 62.5 35 92.6C35 122.8 59.4 147.2 89.6 147.2C104.6 147.2 118.3 141.2 128.2 131.5"
      stroke="url(#ring)"
      stroke-width="24"
      stroke-linecap="round"
    />
    <path d="M131 92H99" stroke="url(#bar)" stroke-width="24" stroke-linecap="round" />
    <path d="M81 62L84.6 75.4L98 79L84.6 82.6L81 96L77.4 82.6L64 79L77.4 75.4L81 62Z" fill="url(#spark)" />
  </g>
</svg>
